<?xml version="1.0" encoding="utf-8"?>
<!-- Generator: Adobe Illustrator 22.0.1, SVG Export Plug-In . SVG Version: 6.00 Build 0)  -->
<svg version="1.1" id="Layer_1" xmlns="http://www.w3.org/2000/svg" xmlns:xlink="http://www.w3.org/1999/xlink" x="0px" y="0px"
	 viewBox="0 0 595.9 66.5" style="enable-background:new 0 0 595.9 66.5;" xml:space="preserve">
<g>
	<path d="M40.2,47.8c0,5.6-2,10-6.1,13.1c-4.1,3.1-9.6,4.7-16.6,4.7c-7.6,0-13.4-1-17.5-2.9v-7.2c2.6,1.1,5.5,2,8.6,2.6
		c3.1,0.6,6.1,1,9.2,1c4.9,0,8.7-0.9,11.2-2.8c2.5-1.9,3.8-4.5,3.8-7.8c0-2.2-0.4-4-1.3-5.4c-0.9-1.4-2.4-2.7-4.5-3.9
		c-2.1-1.2-5.2-2.5-9.5-4.1C11.4,33,7.2,30.5,4.6,27.6c-2.5-2.9-3.8-6.7-3.8-11.4c0-4.9,1.8-8.8,5.5-11.7C10.1,1.5,15,0.1,21,0.1
		c6.3,0,12.2,1.2,17.5,3.5L36.2,10C31,7.8,25.8,6.7,20.9,6.7c-3.9,0-7,0.8-9.2,2.5c-2.2,1.7-3.3,4-3.3,7c0,2.2,0.4,4,1.2,5.4
		c0.8,1.4,2.2,2.7,4.1,3.9c1.9,1.2,4.9,2.5,8.9,3.9c6.7,2.4,11.3,4.9,13.8,7.7C38.9,39.9,40.2,43.5,40.2,47.8z"/>
	<path d="M98.5,32.9l17-31.9h8l-21.3,39.1v24.7h-7.5V40.4L73.5,1h8.1L98.5,32.9z"/>
	<path d="M211.2,64.8h-8.5l-34.9-53.6h-0.3c0.5,6.3,0.7,12,0.7,17.3v36.3h-6.9V1h8.4l34.8,53.3h0.3c-0.1-0.8-0.2-3.3-0.4-7.6
		c-0.2-4.3-0.3-7.3-0.2-9.1V1h6.9V64.8z"/>
	<path d="M313.2,32.8c0,10.2-2.6,18.2-7.7,24.1c-5.2,5.8-12.3,8.8-21.5,8.8c-9.4,0-16.7-2.9-21.8-8.6c-5.1-5.7-7.7-13.9-7.7-24.3
		c0-10.4,2.6-18.4,7.7-24.2C267.3,2.9,274.6,0,284,0c9.2,0,16.3,2.9,21.5,8.7C310.6,14.5,313.2,22.6,313.2,32.8z M262.4,32.8
		c0,8.6,1.8,15.2,5.5,19.7c3.7,4.5,9,6.7,16,6.7c7.1,0,12.4-2.2,16-6.7c3.6-4.5,5.4-11,5.4-19.7c0-8.6-1.8-15.1-5.4-19.5
		c-3.6-4.4-8.9-6.7-16-6.7c-7.1,0-12.4,2.2-16.1,6.7C264.2,17.8,262.4,24.3,262.4,32.8z"/>
	<path d="M406.3,64.8h-8.5L363,11.3h-0.3c0.5,6.3,0.7,12,0.7,17.3v36.3h-6.9V1h8.4l34.8,53.3h0.3c-0.1-0.8-0.2-3.3-0.4-7.6
		c-0.2-4.3-0.3-7.3-0.2-9.1V1h6.9V64.8z"/>
	<path d="M469.2,32.9l17-31.9h8l-21.3,39.1v24.7h-7.5V40.4L444.2,1h8.1L469.2,32.9z"/>
	<path d="M560.3,64.8L538.6,8.2h-0.3c0.4,4.5,0.6,9.8,0.6,16v40.6h-6.9V1h11.2l20.2,52.6h0.3L584.2,1h11.1v63.8h-7.4V23.7
		c0-4.7,0.2-9.8,0.6-15.4h-0.3l-21.8,56.5H560.3z"/>
</g>
</svg>
